<?xml version="1.0" encoding="UTF-8" standalone="no"?>
<!DOCTYPE svg PUBLIC "-//W3C//DTD SVG 1.1//EN" "http://www.w3.org/Graphics/SVG/1.1/DTD/svg11.dtd">
<svg xmlns="http://www.w3.org/2000/svg" version="1.1" viewBox="0.00 0.00 71.00 70.00">
<g stroke-width="2.00" fill="none" stroke-linecap="butt">
<path stroke="#90959d" vector-effect="non-scaling-stroke" d="
  M 70.50 70.00
  L 70.67 69.80
  Q 70.72 69.75 70.72 69.69
  Q 70.68 42.22 70.60 14.75
  C 70.57 6.43 63.95 0.21 55.75 0.22
  Q 35.01 0.24 14.25 0.49
  C 6.04 0.59 0.11 7.51 0.16 15.50
  Q 0.22 26.50 0.29 37.50
  C 0.33 45.53 6.22 52.36 14.51 52.41
  Q 33.83 52.52 53.28 52.50
  A 1.07 1.06 70.1 0 1 54.10 52.89
  L 68.44 70.00"
/>
<path stroke="#90424a" vector-effect="non-scaling-stroke" d="
  M 28.27 31.65
  L 34.28 35.55
  A 2.35 2.35 0.0 0 0 37.60 34.74
  L 37.79 34.40
  A 1.94 1.94 0.0 0 0 37.03 31.75
  L 30.22 28.04
  A 0.32 0.32 0.0 0 1 30.22 27.48
  L 37.21 23.61
  A 1.77 1.77 0.0 0 0 37.81 21.05
  L 37.48 20.57
  A 2.57 2.56 -33.8 0 0 33.98 19.88
  L 28.12 23.69
  A 0.33 0.32 -14.5 0 1 27.62 23.40
  L 27.97 16.34
  Q 28.09 13.84 25.59 14.02
  L 24.93 14.06
  A 1.95 1.94 -3.0 0 0 23.12 16.07
  L 23.41 23.50
  A 0.27 0.27 0.0 0 1 23.00 23.74
  L 16.81 19.74
  A 2.38 2.37 30.2 0 0 13.42 20.63
  L 13.14 21.17
  A 1.88 1.87 28.4 0 0 13.89 23.67
  L 20.75 27.47
  A 0.33 0.32 -45.3 0 1 20.75 28.04
  L 13.76 31.90
  A 1.76 1.76 0.0 0 0 13.18 34.47
  L 13.51 34.93
  A 2.39 2.39 0.0 0 0 16.73 35.55
  L 22.85 31.65
  Q 23.38 31.31 23.36 31.94
  L 23.15 39.17
  A 1.67 1.66 89.2 0 0 24.91 40.89
  L 25.85 40.83
  Q 28.06 40.70 27.96 38.49
  L 27.66 32.01
  Q 27.62 31.23 28.27 31.65"
/>
<path stroke="#90959d" vector-effect="non-scaling-stroke" d="
  M 54.22 26.62
  L 44.80 34.47
  Q 43.20 35.80 44.64 37.30
  L 44.87 37.53
  A 1.61 1.61 0.0 0 0 47.06 37.65
  L 59.27 27.47
  A 1.88 1.88 0.0 0 0 59.19 24.52
  L 47.23 15.54
  Q 45.66 14.37 44.50 15.94
  L 44.35 16.15
  A 1.58 1.58 0.0 0 0 44.65 18.34
  L 54.21 25.76
  Q 54.75 26.18 54.22 26.62"
/>
</g>
<path fill="#ffffff" d="
  M 0.00 0.00
  L 71.00 0.00
  L 71.00 70.00
  L 70.50 70.00
  L 70.67 69.80
  Q 70.72 69.75 70.72 69.69
  Q 70.68 42.22 70.60 14.75
  C 70.57 6.43 63.95 0.21 55.75 0.22
  Q 35.01 0.24 14.25 0.49
  C 6.04 0.59 0.11 7.51 0.16 15.50
  Q 0.22 26.50 0.29 37.50
  C 0.33 45.53 6.22 52.36 14.51 52.41
  Q 33.83 52.52 53.28 52.50
  A 1.07 1.06 70.1 0 1 54.10 52.89
  L 68.44 70.00
  L 0.00 70.00
  L 0.00 0.00
  Z"
/>
<path fill="#212b3b" d="
  M 70.50 70.00
  L 68.44 70.00
  L 54.10 52.89
  A 1.07 1.06 70.1 0 0 53.28 52.50
  Q 33.83 52.52 14.51 52.41
  C 6.22 52.36 0.33 45.53 0.29 37.50
  Q 0.22 26.50 0.16 15.50
  C 0.11 7.51 6.04 0.59 14.25 0.49
  Q 35.01 0.24 55.75 0.22
  C 63.95 0.21 70.57 6.43 70.60 14.75
  Q 70.68 42.22 70.72 69.69
  Q 70.72 69.75 70.67 69.80
  L 70.50 70.00
  Z
  M 28.27 31.65
  L 34.28 35.55
  A 2.35 2.35 0.0 0 0 37.60 34.74
  L 37.79 34.40
  A 1.94 1.94 0.0 0 0 37.03 31.75
  L 30.22 28.04
  A 0.32 0.32 0.0 0 1 30.22 27.48
  L 37.21 23.61
  A 1.77 1.77 0.0 0 0 37.81 21.05
  L 37.48 20.57
  A 2.57 2.56 -33.8 0 0 33.98 19.88
  L 28.12 23.69
  A 0.33 0.32 -14.5 0 1 27.62 23.40
  L 27.97 16.34
  Q 28.09 13.84 25.59 14.02
  L 24.93 14.06
  A 1.95 1.94 -3.0 0 0 23.12 16.07
  L 23.41 23.50
  A 0.27 0.27 0.0 0 1 23.00 23.74
  L 16.81 19.74
  A 2.38 2.37 30.2 0 0 13.42 20.63
  L 13.14 21.17
  A 1.88 1.87 28.4 0 0 13.89 23.67
  L 20.75 27.47
  A 0.33 0.32 -45.3 0 1 20.75 28.04
  L 13.76 31.90
  A 1.76 1.76 0.0 0 0 13.18 34.47
  L 13.51 34.93
  A 2.39 2.39 0.0 0 0 16.73 35.55
  L 22.85 31.65
  Q 23.38 31.31 23.36 31.94
  L 23.15 39.17
  A 1.67 1.66 89.2 0 0 24.91 40.89
  L 25.85 40.83
  Q 28.06 40.70 27.96 38.49
  L 27.66 32.01
  Q 27.62 31.23 28.27 31.65
  Z
  M 54.22 26.62
  L 44.80 34.47
  Q 43.20 35.80 44.64 37.30
  L 44.87 37.53
  A 1.61 1.61 0.0 0 0 47.06 37.65
  L 59.27 27.47
  A 1.88 1.88 0.0 0 0 59.19 24.52
  L 47.23 15.54
  Q 45.66 14.37 44.50 15.94
  L 44.35 16.15
  A 1.58 1.58 0.0 0 0 44.65 18.34
  L 54.21 25.76
  Q 54.75 26.18 54.22 26.62
  Z"
/>
<path fill="#ff5959" d="
  M 27.66 32.01
  L 27.96 38.49
  Q 28.06 40.70 25.85 40.83
  L 24.91 40.89
  A 1.67 1.66 89.2 0 1 23.15 39.17
  L 23.36 31.94
  Q 23.38 31.31 22.85 31.65
  L 16.73 35.55
  A 2.39 2.39 0.0 0 1 13.51 34.93
  L 13.18 34.47
  A 1.76 1.76 0.0 0 1 13.76 31.90
  L 20.75 28.04
  A 0.33 0.32 -45.3 0 0 20.75 27.47
  L 13.89 23.67
  A 1.88 1.87 28.4 0 1 13.14 21.17
  L 13.42 20.63
  A 2.38 2.37 30.2 0 1 16.81 19.74
  L 23.00 23.74
  A 0.27 0.27 0.0 0 0 23.41 23.50
  L 23.12 16.07
  A 1.95 1.94 -3.0 0 1 24.93 14.06
  L 25.59 14.02
  Q 28.09 13.84 27.97 16.34
  L 27.62 23.40
  A 0.33 0.32 -14.5 0 0 28.12 23.69
  L 33.98 19.88
  A 2.57 2.56 -33.8 0 1 37.48 20.57
  L 37.81 21.05
  A 1.77 1.77 0.0 0 1 37.21 23.61
  L 30.22 27.48
  A 0.32 0.32 0.0 0 0 30.22 28.04
  L 37.03 31.75
  A 1.94 1.94 0.0 0 1 37.79 34.40
  L 37.60 34.74
  A 2.35 2.35 0.0 0 1 34.28 35.55
  L 28.27 31.65
  Q 27.62 31.23 27.66 32.01
  Z"
/>
<path fill="#ffffff" d="
  M 54.21 25.76
  L 44.65 18.34
  A 1.58 1.58 0.0 0 1 44.35 16.15
  L 44.50 15.94
  Q 45.66 14.37 47.23 15.54
  L 59.19 24.52
  A 1.88 1.88 0.0 0 1 59.27 27.47
  L 47.06 37.65
  A 1.61 1.61 0.0 0 1 44.87 37.53
  L 44.64 37.30
  Q 43.20 35.80 44.80 34.47
  L 54.22 26.62
  Q 54.75 26.18 54.21 25.76
  Z"
/>
</svg>
